<svg width="1319" height="262" viewBox="0 0 1319 262" fill="none" xmlns="http://www.w3.org/2000/svg">
<rect x="30" y="30" width="232" height="232" rx="13" fill="#AE85FF" fill-opacity="0.86"/>
<rect width="232" height="232" rx="13" fill="#6415FF"/>
<path d="M77.7617 173H108.563V128.682H152.659V103.864H108.563V84.3636H157.534V59.5455H77.7617V173Z" fill="white"/>
<path d="M303.525 186H334.327V141.682H378.423V116.864H334.327V97.3636H383.298V72.5455H303.525V186ZM425.65 72.5455H395.07V186H425.65V72.5455ZM482.225 187.551C509.923 187.551 526.321 169.824 526.321 143.676C526.321 117.528 509.923 99.8011 482.225 99.8011C454.526 99.8011 438.128 117.528 438.128 143.676C438.128 169.824 454.526 187.551 482.225 187.551ZM482.446 164.949C474.247 164.949 469.372 156.805 469.372 143.455C469.372 130.104 474.247 121.96 482.446 121.96C490.202 121.96 495.077 130.104 495.077 143.455C495.077 156.805 490.202 164.949 482.446 164.949ZM579.725 187.551C607.423 187.551 623.821 169.824 623.821 143.676C623.821 117.528 607.423 99.8011 579.725 99.8011C552.026 99.8011 535.628 117.528 535.628 143.676C535.628 169.824 552.026 187.551 579.725 187.551ZM579.946 164.949C571.747 164.949 566.872 156.805 566.872 143.455C566.872 130.104 571.747 121.96 579.946 121.96C587.702 121.96 592.577 130.104 592.577 143.455C592.577 156.805 587.702 164.949 579.946 164.949ZM667.031 187.108C678.997 187.108 687.196 180.682 690.742 172.04H691.406V186H721.764V72.5455H691.185V115.756H690.742C687.418 107.114 679.441 99.8011 666.81 99.8011C649.969 99.8011 633.571 112.653 633.571 143.455C633.571 172.926 648.861 187.108 667.031 187.108ZM678.333 163.619C669.912 163.619 665.037 156.085 665.037 143.455C665.037 130.824 669.912 123.29 678.333 123.29C686.753 123.29 691.85 130.824 691.85 143.455C691.85 155.864 686.753 163.619 678.333 163.619ZM736.334 186H767.135V148.551H777.771L797.715 186H831.175L808.129 143.676C820.206 137.859 827.408 126.835 827.408 111.102C827.408 86.9489 810.512 72.5455 785.306 72.5455H736.334V186ZM767.135 124.619V97.142H777.993C788.796 97.142 795.277 101.352 795.277 111.102C795.277 120.797 788.796 124.619 777.993 124.619H767.135ZM896.156 148.773C896.212 157.193 891.337 162.29 883.747 162.29C876.047 162.29 871.615 157.193 871.56 148.773V100.909H840.98V155.199C841.036 173.812 852.78 187.108 870.673 187.108C883.36 187.108 893.11 180.682 896.821 169.824H897.708V186H926.736V100.909H896.156V148.773ZM972.868 138.136C972.924 129.716 977.688 124.619 985.278 124.619C992.978 124.619 997.52 129.716 997.465 138.136V186H1028.04V131.71C1028.1 113.207 1016.41 99.8011 998.351 99.8011C985.832 99.8011 975.915 106.338 972.204 117.085H971.317V100.909H942.289V186H972.868V138.136ZM1073.72 138.136C1073.78 129.716 1078.54 124.619 1086.13 124.619C1093.83 124.619 1098.37 129.716 1098.32 138.136V186H1128.9V131.71C1128.95 113.207 1117.26 99.8011 1099.2 99.8011C1086.68 99.8011 1076.77 106.338 1073.06 117.085H1072.17V100.909H1043.14V186H1073.72V138.136ZM1184.76 187.551C1208.36 187.551 1223.54 176.25 1226.42 158.523H1198.5C1196.73 163.342 1191.69 166.057 1185.43 166.057C1176.34 166.057 1171.03 160.074 1171.03 151.875V150.545H1226.42V143.455C1226.42 116.365 1209.8 99.8011 1184.1 99.8011C1157.73 99.8011 1140.89 117.307 1140.89 143.676C1140.89 171.209 1157.51 187.551 1184.76 187.551ZM1171.03 133.705C1171.19 126.337 1177.29 121.295 1184.76 121.295C1192.35 121.295 1198.12 126.392 1198.28 133.705H1171.03ZM1238.9 186H1269.48V141.682C1269.48 131.932 1276.18 125.506 1285.21 125.506C1288.37 125.506 1293.47 126.004 1296.52 127.057V100.964C1294.08 100.244 1291.42 99.8011 1288.76 99.8011C1279.67 99.8011 1272.58 105.119 1269.48 117.085H1268.6V100.909H1238.9V186Z" fill="#6415FF"/>
</svg>
